<svg width="32" height="32" viewBox="0 0 32 32" fill="none" xmlns="http://www.w3.org/2000/svg">
<g clip-path="url(#clip0_0_285)">
<path d="M12.7263 7.95425C11.8419 7.99597 11.238 8.13711 10.71 8.34457C10.1636 8.55751 9.70048 8.84327 9.23968 9.30573C8.77888 9.76819 8.49512 10.2317 8.28367 10.7789C8.07904 11.308 7.9404 11.9124 7.90133 12.7973C7.86227 13.6822 7.85362 13.9666 7.85794 16.2237C7.86227 18.4808 7.87224 18.7638 7.91513 19.6505C7.95735 20.5347 8.09799 21.1384 8.30545 21.6665C8.51872 22.213 8.80415 22.6759 9.26678 23.1369C9.7294 23.5978 10.1925 23.8809 10.7411 24.0927C11.2697 24.297 11.8743 24.4363 12.759 24.4751C13.6437 24.5138 13.9285 24.5228 16.1849 24.5184C18.4414 24.5141 18.7255 24.5042 19.612 24.4621C20.4985 24.42 21.0991 24.2784 21.6274 24.0719C22.1738 23.8582 22.6371 23.5732 23.0978 23.1104C23.5584 22.6477 23.842 22.1839 24.0533 21.6363C24.2581 21.1077 24.3972 20.5031 24.4356 19.619C24.4743 18.7318 24.4835 18.4486 24.4792 16.1918C24.4748 13.935 24.4647 13.6521 24.4226 12.7657C24.3806 11.8794 24.2398 11.2774 24.0325 10.749C23.8189 10.2026 23.5338 9.73993 23.0713 9.27863C22.6089 8.81733 22.1447 8.53391 21.5973 8.32312C21.0684 8.11849 20.4641 7.97902 19.5794 7.94078C18.6947 7.90255 18.41 7.89274 16.1527 7.89706C13.8954 7.90139 13.6128 7.91103 12.7263 7.95425ZM12.8233 22.9798C12.013 22.9445 11.5729 22.8099 11.2797 22.6972C10.8914 22.5476 10.6148 22.3667 10.3225 22.0773C10.0303 21.7879 9.85075 21.5103 9.69915 21.1228C9.58528 20.8296 9.44814 20.39 9.41024 19.5796C9.36901 18.7038 9.36037 18.4408 9.35554 16.2217C9.35072 14.0027 9.3592 13.74 9.3976 12.8638C9.43218 12.0541 9.56766 11.6136 9.6802 11.3205C9.82981 10.9317 10.01 10.6555 10.3001 10.3635C10.5902 10.0714 10.8669 9.89154 11.2548 9.73993C11.5477 9.62556 11.9872 9.48958 12.7972 9.45102C13.6738 9.40946 13.9364 9.40115 16.1552 9.39633C18.3739 9.39151 18.6372 9.39982 19.5141 9.43838C20.3238 9.47362 20.7645 9.60778 21.0572 9.72098C21.4457 9.87059 21.7222 10.0503 22.0142 10.3409C22.3063 10.6314 22.4863 10.9072 22.638 11.2959C22.7525 11.588 22.8885 12.0273 22.9267 12.8379C22.9684 13.7144 22.9779 13.9772 22.9819 16.1958C22.9859 18.4143 22.9781 18.6778 22.9397 19.5537C22.9043 20.3641 22.7699 20.8043 22.6571 21.0979C22.5075 21.486 22.3271 21.7628 22.0369 22.0547C21.7466 22.3466 21.4702 22.5265 21.0822 22.6781C20.7896 22.7923 20.3496 22.9286 19.5402 22.9672C18.6636 23.0084 18.401 23.017 16.1814 23.0218C13.9619 23.0267 13.7001 23.0177 12.8235 22.9798M19.5992 11.7655C19.5995 11.9628 19.6584 12.1555 19.7682 12.3194C19.8781 12.4832 20.0341 12.6108 20.2165 12.686C20.3989 12.7611 20.5995 12.7805 20.7929 12.7417C20.9864 12.7029 21.1639 12.6076 21.3032 12.4678C21.4424 12.328 21.5371 12.1501 21.5752 11.9566C21.6133 11.763 21.5932 11.5625 21.5173 11.3804C21.4415 11.1983 21.3134 11.0427 21.1491 10.9334C20.9849 10.8242 20.7919 10.766 20.5946 10.7664C20.3301 10.767 20.0767 10.8725 19.89 11.0598C19.7034 11.2472 19.5988 11.501 19.5992 11.7655ZM11.9009 16.2161C11.9056 18.5733 13.8199 20.4798 16.1766 20.4753C18.5333 20.4708 20.4412 18.5566 20.4367 16.1994C20.4322 13.8422 18.5174 11.9352 16.1603 11.9399C13.8033 11.9445 11.8964 13.8592 11.9009 16.2161ZM13.398 16.2131C13.3969 15.6651 13.5584 15.1291 13.8619 14.6729C14.1654 14.2167 14.5974 13.8607 15.1033 13.65C15.6091 13.4393 16.1661 13.3833 16.7038 13.4891C17.2414 13.595 17.7356 13.8579 18.1239 14.2446C18.5121 14.6313 18.777 15.1245 18.8849 15.6617C18.9929 16.1989 18.9391 16.7561 18.7304 17.2628C18.5217 17.7695 18.1675 18.2029 17.7125 18.5082C17.2574 18.8136 16.7221 18.9771 16.1741 18.9782C15.8103 18.979 15.4498 18.9081 15.1134 18.7695C14.7769 18.6309 14.4711 18.4275 14.2133 18.1707C13.9555 17.9139 13.7508 17.6089 13.6109 17.273C13.471 16.9371 13.3987 16.5769 13.398 16.2131Z" fill="#111D15"/>
</g>
<defs>
<clipPath id="clip0_0_285">
<rect width="16.6234" height="16.6234" fill="white" transform="translate(7.85693 7.89612)"/>
</clipPath>
</defs>
</svg>
