<svg width="16" height="16" viewBox="0 0 16 16" fill="none" xmlns="http://www.w3.org/2000/svg">
<circle cx="8" cy="8" r="8" fill="#36B864"/>
<path d="M6.52209 10.7092L6.52291 10.7083L4.2996 8.2162C4.22455 8.12922 4.18297 8.01267 4.18384 7.89167C4.1847 7.77066 4.22792 7.65488 4.30421 7.56925C4.38049 7.48362 4.48373 7.43501 4.59168 7.43387C4.69963 7.43273 4.80367 7.47917 4.88137 7.56318L7.10468 10.0557L11.4718 5.16154C11.5098 5.11746 11.5552 5.0823 11.6055 5.05811C11.6557 5.03393 11.7097 5.0212 11.7644 5.02066C11.8191 5.02013 11.8733 5.03181 11.9239 5.05501C11.9745 5.07822 12.0205 5.11248 12.0591 5.15581C12.0978 5.19915 12.1283 5.25067 12.149 5.30739C12.1697 5.36411 12.1802 5.42488 12.1797 5.48615C12.1792 5.54743 12.1679 5.60799 12.1463 5.66429C12.1247 5.7206 12.0933 5.77152 12.054 5.8141L7.39535 11.0355C7.31815 11.122 7.21344 11.1706 7.10427 11.1706C6.99509 11.1706 6.89039 11.122 6.81318 11.0355L6.52209 10.7092Z" fill="white"/>
</svg>
